<svg xmlns="http://www.w3.org/2000/svg" version="1.1" xmlns:xlink="http://www.w3.org/1999/xlink" xmlns:svgjs="http://svgjs.dev/svgjs" width="24" height="24"><svg id="SvgjsSvg1002" xmlns="http://www.w3.org/2000/svg" version="1.1" viewBox="0 0 24 24">
  <!-- Generator: Adobe Illustrator 29.4.0, SVG Export Plug-In . SVG Version: 2.1.0 Build 152)  -->
  <path d="M19.49,2.3H4.51C2.24,2.3.4,4.12.4,6.37v13.55c0,2.25,1.84,4.07,4.11,4.07h14.98c2.27,0,4.11-1.82,4.11-4.07V6.37c0-2.25-1.84-4.07-4.11-4.07Z" fill="#004f2b"/>
  <path d="M19.49,0H4.51C2.24,0,.4,1.82.4,4.07v13.55c0,2.25,1.84,4.07,4.11,4.07h14.98c2.27,0,4.11-1.82,4.11-4.07V4.07C23.6,1.82,21.76,0,19.49,0Z" fill="#b2fe15"/>
  <g>
    <path d="M19.79,13.33c.16-.21.31-.41.44-.62.05-.07.1-.15.14-.22.16-.25.3-.51.43-.76,0-.01.01-.02.02-.03.14-.29.26-.58.36-.87,0-.02.01-.05.02-.07.09-.27.16-.55.22-.82,0-.02,0-.04.01-.06.05-.29.1-.59.11-.88.03-.64-.08-1.25-.3-1.81-.69-1.85-2.52-3.19-4.74-3.19,0,0,0,0,0,0h0s0,0,0,0h0s0,0,0,0h0c-2.41,0-3.95.46-5.13,1.12-1.86-1.42-4.51-1.53-6.35-.09-1.23.96-1.86,2.44-1.72,3.98.13,1.44.79,2.78,1.68,3.97-.32,1.05-.03,2.29.98,2.6.1.03.2.04.29.05.08.73.6,1.1,1.35,1.05.1,0,.21-.07.33-.16-.02.17-.03.35-.02.51.06.86.91,1.36,1.67,1.18.28,1.33,2.07,1.51,2.23.68.66.63,1.98.48,2.25-.67,0-.02,0-.04,0-.06.02-.01.04-.02.06-.03l.04.34s1.07.01,1.5-.95c.31-.03,1.2-.18,1.58-1.11.06-.16.09-.33.09-.53.04-.03.08-.07.12-.1l.1.17s.77.03,1.17-.6c.2-.3.34-.66.34-1.11.21-.23.41-.46.59-.7.05-.07.1-.13.15-.2Z" fill="#fff"/>
    <path d="M20.51,5.43c-1-1.07-2.45-1.71-4-1.77h0s0,0,0,0c-2.43,0-3.96.46-5.11,1.08-.59-.42-1.25-.74-1.97-.92-.56-.14-1.14-.19-1.71-.14-1.06.08-2.06.45-2.88,1.08-1.31,1.01-1.99,2.6-1.84,4.24.13,1.44.77,2.78,1.65,3.98-.09.33-.13.68-.09,1.04.08.91.57,1.59,1.31,1.82.05.01.09.02.13.03.08.31.21.53.35.67.27.28.66.42,1.12.42h0s.09-.01.13-.01c0,.02,0,.05,0,.07.03.5.3.95.73,1.23.28.19.62.28.95.28.02,0,.05,0,.07,0,.09.25.22.43.34.56.35.38.86.6,1.34.6.13,0,.26-.01.38-.05.22-.06.39-.17.51-.32.25.14.55.22.84.22h0c.17,0,.33-.02.49-.07.39-.12.7-.38.9-.72,0,0,0,0,0,0h0s0,0,0,0c.07,0,1.14-.03,1.68-.95.45-.07,1.3-.33,1.68-1.28.03-.08.04-.18.06-.27.17,0,.95-.05,1.39-.74.24-.36.36-.75.37-1.16,1.58-1.76,2.43-3.55,2.51-5.35.06-1.32-.42-2.58-1.33-3.56ZM5.95,15.17s0,.04,0,.06c-.63-.26-.77-.95-.79-1.25-.07-.75.25-1.71,1-2.09.23-.12.44-.17.61-.17h0c.15,0,.28.05.37.14.19.17.23.48.12.79-.68.76-1.23,1.8-1.31,2.52ZM7.64,16.33s-.04.02-.06.02c-.24.02-.58-.01-.8-.24-.19-.19-.27-.5-.23-.89.1-.93,1.29-2.68,2.18-2.95.17-.05.33-.08.46-.08h0c.13,0,.23.03.28.08.09.1.1.34,0,.63-.04.11-.09.22-.13.33-.84.77-1.54,2-1.71,3.09ZM9.47,16.7c-.19.47-.26.88-.24,1.21-.2,0-.4-.04-.57-.16-.27-.18-.43-.45-.45-.77-.1-1.42,1.21-3.34,2.29-3.8.13-.05.29-.1.44-.1s.29.04.41.16c.23.23.29.66.15.99v.02s-.03.08-.04.11c-.77.29-1.5,1.14-1.98,2.32ZM11.24,19.05c-.3.08-.79-.03-1.11-.38-.37-.41-.4-1.01-.1-1.75.44-1.08,1.11-1.86,1.74-2.03.09-.02.17-.03.25-.03h0c.18,0,.35.07.51.19.3.23.1.74-.28,1.62-.26.59-.57,1.33-.74,2.14-.03.11-.12.19-.27.23ZM13.75,18.13c-.12.52-.48.7-.68.76-.32.09-.66.03-.92-.14.16-.68.42-1.3.66-1.84.07-.15.13-.3.19-.45.52.64.86,1.22.76,1.67ZM18.46,15.18c-.25.38-.71.45-.85.46-.11-1.3-1.17-3.04-2.41-4.35-.12-.12-.3-.13-.43-.01-.12.12-.13.3-.01.42,1.6,1.68,2.56,3.69,2.2,4.58-.2.49-.58.72-.9.83.08-1.22-1.1-3.03-2.38-4.34-.12-.12-.31-.12-.43,0-.12.12-.12.31,0,.42,1.33,1.37,2.5,3.29,2.16,4.14-.23.58-.75.75-1.04.8.08-.71-.42-1.5-1.14-2.32.12-.49.09-.92-.32-1.23-.25-.19-.52-.28-.8-.3.14-.52.02-1.1-.34-1.46-.21-.22-.71-.53-1.51-.18-.04.02-.07.05-.11.06.04-.34-.04-.63-.23-.83-.19-.19-.59-.38-1.35-.16-.22.07-.45.2-.67.37-.05-.26-.16-.49-.35-.67-.19-.17-.73-.53-1.67-.05-.4.21-.73.55-.96.97-.7-1.04-1.2-2.17-1.31-3.38-.14-1.44.46-2.82,1.6-3.71.72-.55,1.6-.89,2.54-.95.51-.03,1.02,0,1.53.13.55.13,1.07.37,1.54.67-.24.15-.47.31-.69.47-.79.6-1.69,1.33-2.3,2.51-.56,1.07-.13,2.02.57,2.42.22.12.48.19.75.19h0c.55,0,1.14-.28,1.59-1.02.49-.81,1.43-1.29,2.41-1.55,2.94,1.25,4.26,3.31,4.97,4.45.88,1.42.64,2.15.33,2.63ZM19.24,13.54c-.11-.4-.31-.83-.6-1.3-.68-1.1-1.9-2.98-4.46-4.32.27-.03.53-.05.78-.05.17,0,.3-.14.3-.3s-.14-.3-.3-.3c-1.6,0-3.79.54-4.73,2.07-.5.81-1.13.84-1.52.62-.46-.25-.72-.89-.34-1.62.56-1.07,1.39-1.75,2.13-2.31,1.21-.92,2.77-1.76,6.01-1.76,0,0,0,0,0,0,1.37.05,2.67.63,3.56,1.57.8.86,1.22,1.97,1.17,3.12-.06,1.52-.75,3.05-2,4.57Z" fill="#231f20"/>
  </g>
</svg><style>@media (prefers-color-scheme: light) { :root { filter: none; } }
@media (prefers-color-scheme: dark) { :root { filter: none; } }
</style></svg>