<svg width="64" height="64" viewBox="0 0 64 64" fill="none" xmlns="http://www.w3.org/2000/svg">
<path d="M11.9569 53.7127C7.29514 49.3456 4.17195 43.5483 3.07961 37.2744H0.787217H0.417969C2.69497 50.9294 13.6185 61.6782 27.3882 63.6772V63.585V61.3091C21.6341 60.3557 16.2493 57.7262 11.9569 53.7127Z" fill="#FF6C1A"/>
<path d="M63.8797 28.863L63.8489 28.5862C62.3565 14.5006 51.71 3.13678 37.971 0.553395C37.3095 0.430377 36.6479 0.322736 35.9863 0.24585V3.64423C41.7712 4.50536 47.2021 7.1195 51.4946 11.1483C56.3717 15.7154 59.5564 21.9586 60.418 28.5862C60.4334 28.6785 60.4488 28.7707 60.4488 28.863V28.9245H63.895C63.8797 28.9091 63.8797 28.8784 63.8797 28.863ZM61.618 28.863H60.6026H62.3258H61.618Z" fill="#00BBFF"/>
<path d="M31.6627 5.41281V0C30.2165 0.0153773 28.7857 0.12302 27.3856 0.338302C13.0159 2.42961 1.73852 14.0548 0.184619 28.5864C0.0615379 29.7089 0 30.8468 0 32.0155C0 32.2308 0 32.4461 0 32.6614C0 32.7536 0 32.8459 0 32.9382H5.52328V32.6614C5.55405 32.0309 5.61559 31.4004 5.69251 30.77C6.86179 17.0995 17.9083 6.25856 31.6627 5.41281ZM0.138466 32.6614C0.138466 32.646 0.138466 32.646 0.138466 32.6614Z" fill="#FF003E"/>
<path d="M58.4924 32.9226C58.4616 33.4147 58.4155 33.9068 58.3539 34.3835C58.2308 35.3676 58.0616 36.321 57.8308 37.259C56.7385 41.8107 54.3999 45.8395 51.0613 49.4071C47.0304 53.6973 41.7379 56.5883 35.9685 57.6647C35.6146 57.7262 35.2454 57.7877 34.8915 57.8492C34.0607 57.9261 33.2299 57.9722 32.3684 57.9722C32.1376 57.9722 31.9222 57.9722 31.6914 57.9568V64.0001C31.7991 64.0001 31.9068 64.0001 31.9991 64.0001C33.3376 64.0001 34.6607 63.9232 35.9531 63.7541C47.7843 62.2932 57.6 54.3893 61.8156 43.6713C62.6156 41.6262 63.2156 39.4887 63.5849 37.259C63.8157 35.8443 63.9541 34.3835 64.0003 32.9226H58.4924Z" fill="#00CD76"/>
</svg>
