<?xml version="1.0" standalone="no"?>
<!DOCTYPE svg PUBLIC "-//W3C//DTD SVG 20010904//EN"
 "http://www.w3.org/TR/2001/REC-SVG-20010904/DTD/svg10.dtd">
<svg version="1.0" xmlns="http://www.w3.org/2000/svg"
 width="700.000000pt" height="700.000000pt" viewBox="0 0 700.000000 700.000000"
 preserveAspectRatio="xMidYMid meet">
<metadata>
Created by potrace 1.14, written by Peter Selinger 2001-2017
</metadata>
<g transform="translate(0.000000,700.000000) scale(0.100000,-0.100000)"
fill="#000000" stroke="none">
<path d="M1145 6490 c-161 -19 -305 -89 -420 -205 -92 -93 -135 -160 -179
-282 l-31 -88 -3 -970 c-3 -1086 -5 -1060 67 -1210 90 -189 235 -318 428 -381
l88 -29 490 0 490 0 80 28 c250 88 428 286 481 537 9 42 14 133 14 262 l0 197
1433 4 c1411 3 1433 3 1522 24 229 53 401 143 554 288 165 157 269 339 312
550 17 81 19 143 19 651 0 550 0 562 -20 587 -12 15 -38 31 -58 37 -42 11
-5167 12 -5267 0z m1285 -1363 c0 -1264 3 -1203 -60 -1327 -38 -75 -128 -166
-202 -203 -109 -55 -127 -57 -591 -57 l-428 0 -76 25 c-86 29 -147 68 -211
134 -52 55 -108 165 -122 240 -14 78 -13 1873 1 1943 31 146 138 281 273 344
42 19 102 39 134 43 31 5 333 9 670 10 l612 1 0 -1153z m2946 1079 c25 -132
79 -259 159 -371 56 -77 173 -191 251 -244 123 -83 295 -149 437 -167 l50 -7
-6 -76 c-14 -185 -112 -379 -259 -516 -119 -112 -238 -177 -408 -224 l-95 -26
-1425 0 -1425 0 -3 853 -2 852 1357 -2 1357 -3 12 -69z"/>
<path d="M2894 6056 c-28 -28 -34 -42 -34 -75 0 -65 36 -96 145 -124 l89 -24
-2 -39 c-3 -48 27 -100 66 -115 30 -12 57 -7 242 43 131 36 180 70 180 126 0
36 -38 85 -77 100 -55 21 -520 142 -547 142 -18 0 -40 -12 -62 -34z"/>
<path d="M835 2782 c-140 -50 -249 -166 -290 -306 -14 -49 -16 -88 -12 -230 9
-323 66 -441 312 -644 234 -193 292 -275 306 -430 14 -159 11 -214 -13 -262
-53 -105 -177 -121 -259 -34 -23 24 -24 34 -29 189 -4 145 -7 167 -26 191 -36
49 -70 67 -131 71 -68 5 -110 -16 -143 -69 -19 -31 -21 -47 -18 -233 3 -192 4
-202 29 -256 40 -86 137 -182 227 -227 l76 -37 140 0 c135 0 143 1 201 29 120
58 235 202 264 327 14 57 14 230 1 344 -30 262 -92 359 -360 573 -217 173
-250 231 -257 457 -4 128 -3 143 16 172 55 88 169 102 238 31 47 -49 53 -75
53 -232 0 -163 7 -182 84 -217 74 -34 144 -20 201 40 l30 32 3 157 c4 174 -6
248 -45 330 -38 80 -132 175 -211 214 -64 32 -72 33 -202 36 -110 2 -144 -1
-185 -16z"/>
<path d="M3363 2786 c-67 -22 -124 -60 -186 -125 -63 -66 -101 -138 -117 -221
-13 -68 -13 -1493 -1 -1572 22 -135 127 -269 258 -331 67 -31 70 -32 213 -32
l145 0 69 34 c90 46 174 129 217 217 l34 69 0 830 0 830 -29 60 c-41 83 -136
177 -223 218 -65 31 -74 32 -203 34 -92 2 -149 -2 -177 -11z m247 -321 c15 -8
38 -27 49 -41 21 -27 21 -31 21 -768 0 -707 -1 -742 -19 -772 -27 -44 -82 -67
-148 -62 -62 5 -100 29 -125 79 -17 31 -18 88 -18 749 0 797 -3 759 69 807 40
27 126 31 171 8z"/>
<path d="M4582 2781 c-116 -40 -228 -147 -275 -261 l-22 -55 0 -816 0 -815 37
-76 c45 -90 135 -181 225 -224 56 -28 63 -29 208 -29 l150 0 67 34 c116 58
203 158 240 274 17 55 18 112 18 837 0 754 -1 780 -20 844 -38 123 -150 238
-277 286 -74 27 -272 28 -351 1z m288 -347 l35 -34 0 -749 0 -749 -25 -27
c-36 -38 -73 -55 -122 -55 -55 0 -107 26 -135 69 l-23 34 0 724 c0 641 2 729
16 758 42 89 178 104 254 29z"/>
<path d="M2524 2761 c-22 -10 -50 -31 -62 -46 -21 -27 -22 -36 -22 -284 0
-239 4 -284 49 -691 27 -239 47 -438 44 -442 -11 -20 -24 -3 -38 50 -97 350
-385 1243 -431 1334 -38 75 -62 88 -165 88 -88 0 -89 0 -124 -35 l-35 -36 0
-1035 c0 -1159 -6 -1070 73 -1114 75 -43 171 -24 221 43 20 27 21 42 24 305 2
163 -3 397 -12 567 -20 357 -20 408 -4 403 7 -3 16 -20 20 -39 46 -187 143
-485 289 -884 146 -398 160 -420 265 -419 64 1 100 22 127 75 16 32 17 97 15
1056 -3 1013 -3 1022 -24 1050 -25 35 -98 73 -139 73 -16 0 -48 -9 -71 -19z"/>
<path d="M5614 2760 c-11 -4 -34 -24 -52 -44 l-32 -37 0 -1033 c0 -1013 0
-1034 20 -1058 62 -79 213 -78 270 2 19 26 20 45 20 263 0 130 3 242 6 251 5
14 27 16 138 16 148 0 197 11 281 65 105 67 187 192 206 317 6 37 9 288 7 618
-3 618 1 585 -73 630 -31 19 -48 20 -401 19 -203 0 -378 -4 -390 -9z m544
-745 c3 -480 2 -487 -64 -545 -34 -29 -37 -30 -139 -30 l-105 0 0 505 0 506
153 -3 152 -3 3 -430z"/>
</g>
</svg>
